Coordinates
version=1
nRows=17
nColumns=33
inDegrees=yes

Units are S.I. units (second, meters, Newtons, ...)
Angles are in degrees.

endheader
time	ground_thorax_rot_x	ground_thorax_rot_y	ground_thorax_rot_z	ground_thorax_tx	ground_thorax_ty	ground_thorax_tz	clav_prot_r	clav_elev_r	scapula_abduction_r	scapula_elevation_r	scapula_upward_rot_r	scapula_winging_r	shoulder_elv_r	plane_of_elev_r	axial_rot_r	elbow_flexion_r	pro_sup_r	wrist_flex_r	wrist_dev_r	clav_prot_l	clav_elev_l	scapula_abduction_l	scapula_elevation_l	scapula_upward_rot_l	scapula_winging_l	shoulder_elv_l	plane_of_elev_l	axial_rot_l	elbow_flexion_l	pro_sup_l	wrist_flex_l	wrist_dev_l
     10.92000000	    -13.31353830	    -39.20997128	     64.75278122	     13.25616619	    793.75355190	    -35.96469612	     29.07049740	    -45.00000000	     41.70172368	    -45.00000000	    -45.00000000	   1693.88472460	  -2086.39684153	     19.26509011	   -137.18080112	    359.75011476	    171.49693164	     11.75418672	     14.13785926	     -4.24245851	     36.67181411	    -30.05114629	    -45.00000000	    -29.60630724	   3697.13402061	  -2986.99424586	    141.85091891	    179.99999979	   2158.04708056	     42.03417946	     16.26880325	    -19.72650785
     10.93000000	    -12.81817423	    -39.30278116	     65.48285233	     15.64494519	    791.76805681	    -35.62241177	     29.12825930	    -45.00000000	     41.67142816	    -45.00000000	    -45.00000000	   1693.73258768	  -2086.38891486	     19.17289822	   -136.31456868	    359.81171219	    171.61464904	     11.69466861	     14.05259997	     -4.28016148	     36.51660412	    -29.72467458	    -45.00000000	    -30.14265287	   3696.89261112	  -2987.06666385	    141.77794339	    179.99999979	   2157.96732774	     41.94137223	     16.20798630	    -19.54101887
     10.94000000	    -12.38082800	    -39.38220370	     66.16636199	     17.95469256	    789.80553467	    -35.27772544	     29.21668459	    -45.00000000	     41.62547551	    -45.00000000	    -45.00000000	   1693.56138070	  -2086.40464229	     19.09377987	   -135.41309295	    359.89161096	    171.65652024	     11.63512869	     13.98947891	     -4.30263081	     36.38776882	    -29.44996516	    -45.00000000	    -30.69829747	   3696.66346680	  -2987.11445124	    141.70734878	    179.99999979	   2157.87551361	     41.81197156	     16.19900437	    -19.39898873
     10.95000000	    -11.93642890	    -39.45738677	     66.83339545	     20.17829583	    787.87540719	    -34.93557748	     29.28937593	    -45.00000000	     41.60953696	    -45.00000000	    -45.00000000	   1693.40371603	  -2086.41841771	     19.00101385	   -134.51200894	    359.97079721	    171.62606553	     11.56657516	     13.93039360	     -4.33987066	     36.24923845	    -29.16554796	    -45.00000000	    -31.24851022	   3696.43104975	  -2987.16085581	    141.65199507	    179.99999979	   2157.77659617	     41.65089814	     16.17939492	    -19.24359769
     10.96000000	    -11.52208497	    -39.50757375	     67.45837152	     22.30793200	    785.98817296	    -34.60083181	     29.36476432	    -45.00000000	     41.57688198	    -45.00000000	    -45.00000000	   1693.24790289	  -2086.40528270	     18.91560357	   -133.56294749	    360.04685317	    171.52569231	     11.50777130	     13.86080052	     -4.37241507	     36.10888303	    -28.88064256	    -45.00000000	    -31.78869221	   3696.19196067	  -2987.20424079	    141.58691417	    179.99999979	   2157.68360648	     41.45697341	     16.16075044	    -19.09060006
     10.97000000	    -11.12687694	    -39.55227350	     68.06115375	     24.33655278	    784.15428341	    -34.27811252	     29.44401030	    -45.00000000	     41.55696387	    -45.00000000	    -45.00000000	   1693.07925997	  -2086.40914912	     18.83429183	   -132.61932824	    360.13508249	    171.34546518	     11.43988562	     13.80741406	     -4.40321020	     35.98501566	    -28.61886893	    -45.00000000	    -32.32291582	   3695.97143284	  -2987.23335932	    141.53031921	    179.99999979	   2157.57827849	     41.22700027	     16.16755407	    -18.95491014
     10.98000000	    -10.76760620	    -39.58089134	     68.61829290	     26.25821341	    782.38420197	    -33.97215260	     29.52851892	    -45.00000000	     41.53343634	    -45.00000000	    -45.00000000	   1692.91532321	  -2086.41368799	     18.74262845	   -131.66601397	    360.21882476	    171.08760182	     11.37350275	     13.75729516	     -4.43695394	     35.86781528	    -28.37634739	    -45.00000000	    -32.81393396	   3695.76909036	  -2987.25951625	    141.48227293	    179.99999979	   2157.46923132	     40.95543902	     16.18241271	    -18.82436758
     10.99000000	    -10.39729072	    -39.47521798	     69.20006462	     28.06713555	    780.68856340	    -33.68788742	     29.54608123	    -45.00000000	     41.45914530	    -45.00000000	    -45.00000000	   1692.75790774	  -2086.28524382	     18.64982002	   -130.68043927	    360.22637312	    170.79450762	     11.36600514	     13.63777493	     -4.48779325	     35.69101480	    -28.04143718	    -45.00000000	    -33.30592939	   3695.43352492	  -2987.26705808	    141.30672570	    179.99999979	   2157.50405739	     40.64586270	     16.07452662	    -18.66038305
     11.00000000	    -10.00634162	    -39.58127167	     69.78127851	     29.76097307	    779.07454404	    -33.42994414	     29.63426716	    -45.00000000	     41.38618262	    -45.00000000	    -45.00000000	   1692.49883317	  -2086.27709724	     18.66525375	   -129.68236991	    360.37318484	    170.42490721	     11.28371579	     13.61328737	     -4.48834553	     35.59656417	    -27.78800124	    -45.00000000	    -33.95116888	   3695.30299698	  -2987.24278587	    141.29721983	    179.99999979	   2157.32293856	     40.31781291	     16.18528997	    -18.58261806
     11.01000000	     -9.72088749	    -39.54799346	     70.17420836	     31.33835265	    777.54635924	    -33.20171317	     29.71537080	    -45.00000000	     41.42513957	    -45.00000000	    -45.00000000	   1692.39739909	  -2086.21788227	     18.52586767	   -128.74656768	    360.41868948	    169.97000165	     11.24389107	     13.54861142	     -4.56787656	     35.51615689	    -27.53447042	    -45.00000000	    -34.22665145	   3695.11840550	  -2987.29089778	    141.27908931	    179.99999979	   2157.20204662	     39.92028044	     16.14025999	    -18.41743248
     11.02000000	     -9.51659316	    -39.51347931	     70.51381963	     32.79802927	    776.10659761	    -33.00696444	     29.75872513	    -45.00000000	     41.39469694	    -45.00000000	    -45.00000000	   1692.23042993	  -2086.24773924	     18.51376988	   -127.97130529	    360.52597254	    169.42848284	     11.16612220	     13.54854680	     -4.56906715	     35.39129431	    -27.36900636	    -45.00000000	    -34.66922589	   3694.95288353	  -2987.32600303	    141.20422272	    179.99999979	   2157.08234144	     39.47438691	     16.20372682	    -18.32620368
     11.03000000	     -9.29564070	    -39.50707703	     70.85883627	     34.13837713	    774.75288368	    -32.84494609	     29.81630421	    -45.00000000	     41.39551975	    -45.00000000	    -45.00000000	   1692.11929014	  -2086.24147847	     18.39950622	   -127.17876297	    360.57427752	    168.81631781	     11.10214656	     13.54704326	     -4.59934613	     35.34254088	    -27.19659867	    -45.00000000	    -34.93179944	   3694.84853319	  -2987.35544744	    141.20439037	    179.99999979	   2156.91733810	     38.97871181	     16.21008426	    -18.17771742
     11.04000000	     -9.13252587	    -39.47271337	     71.21745307	     35.36652160	    773.47696455	    -32.72125555	     29.83125714	    -45.00000000	     41.20869645	    -45.00000000	    -45.00000000	   1691.95697723	  -2086.21868005	     18.35808521	   -126.49770883	    360.66479255	    168.15933652	     11.09758071	     13.55750940	     -4.64099106	     35.24335183	    -26.85581016	    -45.00000000	    -35.31555392	   3694.60534108	  -2987.22300073	    141.04640009	    179.99999979	   2156.86562260	     38.47062111	     16.08150583	    -18.01946671
     11.05000000	     -8.94202397	    -39.44907622	     71.56304479	     36.45683483	    772.28170072	    -32.61690223	     29.85781794	    -45.00000000	     41.28890940	    -45.00000000	    -45.00000000	   1691.77056130	  -2086.29536132	     18.24017752	   -125.92136560	    360.80999571	    167.48229754	     10.92779871	     13.62638331	     -4.65460349	     35.17854143	    -26.79804903	    -45.00000000	    -35.71788071	   3694.54318336	  -2987.21472196	    141.06434999	    179.99999979	   2156.71320454	     37.96836336	     16.17913665	    -17.95182435
     11.06000000	     -8.80289978	    -39.39545894	     71.72170175	     37.45117328	    771.14351729	    -32.56508980	     29.89546147	    -45.00000000	     41.21014836	    -45.00000000	    -45.00000000	   1691.68960729	  -2086.29257855	     18.25441552	   -125.49877094	    360.84219014	    166.61078377	     11.00791842	     13.81260916	     -4.70581697	     35.09596809	    -26.46955127	    -45.00000000	    -35.93496790	   3694.34441993	  -2987.22790166	    140.92424791	    179.99999979	   2156.56063042	     37.44380242	     15.97145440	    -17.71398716
     11.07000000	     -8.59721247	    -39.34812141	     72.05126517	     38.38791474	    770.04501028	    -32.60055237	     29.88431902	    -45.00000000	     41.28247904	    -45.00000000	    -45.00000000	   1691.51582321	  -2086.43060916	     18.14373381	   -125.31390496	    360.90458653	    165.46467518	     10.77420345	     14.09111863	     -4.71242727	     35.04393420	    -26.54263225	    -45.00000000	    -36.28038531	   3694.36289043	  -2987.30327410	    141.08418998	    179.99999979	   2156.48552699	     36.89100817	     16.21646178	    -17.77228311
     11.08000000	     -8.51061784	    -39.20987594	     72.18533524	     39.31153720	    768.96597546	    -32.75977738	     29.89978949	    -45.00000000	     41.23017359	    -45.00000000	    -45.00000000	   1691.39148854	  -2086.59492316	     18.08022502	   -125.29412749	    360.97927775	    163.73832184	     10.87920475	     14.65084921	     -4.76865772	     34.93838651	    -26.11943321	    -45.00000000	    -36.43138514	   3694.20457391	  -2987.29212974	    140.83337658	    179.99999979	   2156.40529458	     36.34129652	     15.81950176	    -17.42768833
